<svg xmlns="http://www.w3.org/2000/svg" xmlns:ev="http://www.w3.org/2001/xml-events" xmlns:xlink="http://www.w3.org/1999/xlink" width="10" height="10" baseProfile="full" version="1.1"><rect width="10" height="10" x="0" y="0" fill="#fff"/><rect width="1" height="1" x="0" y="0" fill="#780085"/><rect width="1" height="1" x="2" y="3" fill="#73008A"/><rect width="1" height="1" x="4" y="3" fill="red"/><rect width="1" height="1" x="8" y="3" fill="#A80054"/><rect width="1" height="1" x="5" y="4" fill="#4D00B3"/><rect width="1" height="1" x="7" y="4" fill="#73008A"/><rect width="1" height="1" x="9" y="4" fill="#990063"/><rect width="1" height="1" x="3" y="5" fill="#6E008F"/><rect width="1" height="1" x="5" y="5" fill="#7F007F"/><rect width="1" height="1" x="7" y="5" fill="red"/><rect width="1" height="1" x="3" y="6" fill="red"/><rect width="1" height="1" x="6" y="6" fill="red"/><rect width="1" height="1" x="7" y="6" fill="red"/><rect width="1" height="1" x="0" y="7" fill="#7F007F"/><rect width="1" height="1" x="2" y="7" fill="red"/><rect width="1" height="1" x="4" y="7" fill="#4000BF"/><rect width="1" height="1" x="2" y="8" fill="#5400A8"/><rect width="1" height="1" x="4" y="8" fill="#D40029"/><rect width="1" height="1" x="8" y="8" fill="#5400A8"/><rect width="1" height="1" x="1" y="9" fill="#2400D9"/></svg>