<?xml version="1.0" encoding="utf-8" ?>
<svg baseProfile="full" height="10" version="1.1" width="10" xmlns="http://www.w3.org/2000/svg" xmlns:ev="http://www.w3.org/2001/xml-events" xmlns:xlink="http://www.w3.org/1999/xlink"><defs /><rect fill="white" height="10" width="10" x="0" y="0" /><rect fill="rgb(47%,0%,52%)" height="1" width="1" x="0" y="0" /><rect fill="rgb(45%,0%,54%)" height="1" width="1" x="2" y="3" /><rect fill="rgb(100%,0%,0%)" height="1" width="1" x="4" y="3" /><rect fill="rgb(66%,0%,33%)" height="1" width="1" x="8" y="3" /><rect fill="rgb(30%,0%,70%)" height="1" width="1" x="5" y="4" /><rect fill="rgb(45%,0%,54%)" height="1" width="1" x="7" y="4" /><rect fill="rgb(60%,0%,39%)" height="1" width="1" x="9" y="4" /><rect fill="rgb(43%,0%,56%)" height="1" width="1" x="3" y="5" /><rect fill="rgb(50%,0%,50%)" height="1" width="1" x="5" y="5" /><rect fill="rgb(100%,0%,0%)" height="1" width="1" x="7" y="5" /><rect fill="rgb(100%,0%,0%)" height="1" width="1" x="3" y="6" /><rect fill="rgb(100%,0%,0%)" height="1" width="1" x="6" y="6" /><rect fill="rgb(100%,0%,0%)" height="1" width="1" x="7" y="6" /><rect fill="rgb(50%,0%,50%)" height="1" width="1" x="0" y="7" /><rect fill="rgb(100%,0%,0%)" height="1" width="1" x="2" y="7" /><rect fill="rgb(25%,0%,75%)" height="1" width="1" x="4" y="7" /><rect fill="rgb(33%,0%,66%)" height="1" width="1" x="2" y="8" /><rect fill="rgb(83%,0%,16%)" height="1" width="1" x="4" y="8" /><rect fill="rgb(33%,0%,66%)" height="1" width="1" x="8" y="8" /><rect fill="rgb(14%,0%,85%)" height="1" width="1" x="1" y="9" /></svg>